<?xml version="1.0" encoding="UTF-8" standalone="no"?><!DOCTYPE svg PUBLIC "-//W3C//DTD SVG 1.1//EN" "http://www.w3.org/Graphics/SVG/1.1/DTD/svg11.dtd"><svg width="100%" height="100%" viewBox="0 0 309 190" version="1.1" xmlns="http://www.w3.org/2000/svg" xmlns:xlink="http://www.w3.org/1999/xlink" xml:space="preserve" style="fill-rule:evenodd;clip-rule:evenodd;stroke-linejoin:round;stroke-miterlimit:2;"><path d="M46.843,179.352c-16.207,-1.233 -27.332,-7.477 -34.437,-16.399c-6.096,-7.655 -10.416,-18.239 -11.787,-32.169c-0.244,-2.474 -0.415,-5.193 -0.505,-8.158c-0.082,-2.672 -0.12,-5.442 -0.113,-8.31c0.006,-2.925 0.074,-5.84 0.202,-8.746c0.127,-2.864 0.292,-5.584 0.494,-8.162c0.207,-2.653 0.436,-5.025 0.681,-7.119c0.007,-0.057 0.014,-0.115 0.021,-0.172c1.48,-11.788 4.978,-21.298 9.891,-28.735c-1.339,-1.41 -2.613,-3.213 -3.713,-5.487c-1.218,-2.519 -1.853,-4.852 -2.075,-6.945c-0.002,-0.011 -0.002,-0.023 -0.001,-0.035l0.348,-5.512c0.001,-0.02 0.005,-0.039 0.012,-0.058l1.138,-3.157c0.005,-0.015 0.012,-0.029 0.021,-0.042l1.894,-2.944c0.009,-0.014 0.019,-0.026 0.031,-0.038c-0,0 0.591,-0.569 0.591,-0.568c-0.147,-4.083 2.081,-8.061 5.994,-9.953l2.836,-1.372c3.66,-1.77 7.834,-1.252 10.902,0.99l2.76,-0.86c0.017,-0.005 0.035,-0.008 0.053,-0.009l1.91,-0.088l1.081,-1.077c0.014,-0.014 0.03,-0.026 0.048,-0.036c0,0 1.991,-1.07 1.995,-1.072c0.254,-0.198 5.074,-3.932 9.755,-5.774c2.837,-1.116 8.919,-1.331 9.309,-1.344c-0,0 1.666,-0.361 1.669,-0.36c0.394,-0.187 0.803,-0.351 1.226,-0.49l2.49,-0.821c0.518,-0.171 1.04,-0.299 1.559,-0.387c0.497,-0.217 1.016,-0.399 1.556,-0.542l2.363,-0.625c0.587,-0.155 1.176,-0.258 1.764,-0.311l2.802,-1.153c0.018,-0.008 0.037,-0.013 0.057,-0.015l5.333,-0.561c0.018,-0.002 0.037,-0.001 0.055,0.002l1.56,0.254l2.026,-1.331c0.016,-0.01 0.032,-0.018 0.05,-0.024l4.097,-1.339c0.015,-0.005 0.031,-0.009 0.047,-0.01l4.081,-0.346c0.018,-0.001 0.036,-0 0.054,0.003l2.4,0.415c0,0 0.642,-0.307 0.642,-0.306c1.148,-3.921 4.516,-6.994 8.827,-7.556l3.123,-0.408c3.154,-0.411 6.165,0.606 8.383,2.55l2.515,-1.237c0.015,-0.008 0.031,-0.014 0.047,-0.017l3.502,-0.759c0.014,-0.003 0.028,-0.005 0.042,-0.005l3.312,-0.033c0.012,0 0.024,0.001 0.037,0.003l3.173,0.539c0.014,0.002 0.028,0.006 0.041,0.011l3.273,1.273c0.016,0.006 0.031,0.014 0.045,0.024c-0,-0 2.454,1.727 2.454,1.727l2.617,-1.022c0.015,-0.006 0.032,-0.01 0.049,-0.012l3.553,-0.46c0.014,-0.002 0.028,-0.002 0.043,-0.001l3.302,0.248c0.012,0 0.024,0.002 0.036,0.006l3.117,0.805c0.014,0.004 0.027,0.009 0.04,0.015l3.153,1.545c0.015,0.007 0.03,0.017 0.043,0.028l2.935,2.463c0.015,0.013 0.028,0.027 0.039,0.043l1.659,2.457l0.061,-0.027l0.044,0.208l-0.18,0.08l-1.757,-2.601l-2.935,-2.464l-3.154,-1.545l-3.117,-0.806l-3.302,-0.247l-3.554,0.459l-2.721,1.063l-2.545,-1.792l-3.273,-1.273l-3.174,-0.538l-3.312,0.033l-3.501,0.758l-2.641,1.299c-2.183,-1.965 -5.18,-3.001 -8.322,-2.591l-3.123,0.408c-4.259,0.555 -7.579,3.61 -8.679,7.496l-0.787,0.376l-2.466,-0.427l-4.081,0.346l-4.097,1.339l-2.094,1.375l-1.64,-0.267l-5.333,0.561l-2.83,1.165c-0.587,0.052 -1.176,0.154 -1.761,0.308l-2.364,0.625c-0.537,0.143 -1.053,0.324 -1.547,0.541c-0.52,0.087 -1.039,0.215 -1.556,0.385l-2.49,0.821c-0.421,0.139 -0.829,0.302 -1.221,0.489l-1.714,0.371c0,-0 -6.349,0.185 -9.257,1.33c-4.785,1.882 -9.713,5.752 -9.713,5.752l-2.015,1.084l-1.138,1.134l-1.991,0.091l-2.86,0.891c-3.016,-2.25 -7.151,-2.784 -10.773,-1.032l-2.836,1.371c-3.866,1.87 -6.055,5.815 -5.873,9.85l-0.659,0.635l-1.894,2.944l-1.138,3.157l-0.348,5.512c0.22,2.073 0.85,4.382 2.056,6.876c1.12,2.317 2.423,4.141 3.791,5.554l-0.021,0.03c-0.031,0.048 -0.063,0.096 -0.094,0.144c-0.013,-0.009 -0.024,-0.018 -0.035,-0.029c-0.025,-0.026 -0.051,-0.053 -0.076,-0.079c0.004,0.022 0.011,0.043 0.022,0.063c0.016,0.031 0.04,0.056 0.068,0.075c-4.874,7.404 -8.343,16.863 -9.814,28.581c-0.008,0.057 -0.014,0.113 -0.021,0.17c-0.245,2.091 -0.473,4.462 -0.681,7.111c-0.202,2.576 -0.366,5.294 -0.493,8.156c-0.128,2.902 -0.195,5.815 -0.202,8.736c-0.006,2.866 0.031,5.634 0.113,8.303c0.09,2.961 0.261,5.675 0.504,8.144c1.366,13.883 5.668,24.432 11.743,32.06c7.074,8.884 18.153,15.094 34.289,16.322l0.25,0.017c0.002,0 0.004,0 0.007,0l-0.007,0.209c-0.005,-0.001 -0.009,-0.001 -0.014,-0.001l-0.236,-0.017l-0.015,-0.001Zm104.654,-168.899l-0.02,-0.213c0,-0 0.807,-0.149 0.807,-0.149c2.129,-3.486 6.182,-5.575 10.49,-4.995l3.122,0.42c4.221,0.568 7.528,3.542 8.724,7.353c0,0 2.304,0.762 2.307,0.764c0.439,0.037 0.879,0.102 1.317,0.196l3.242,0.692c1.193,0.255 2.307,0.705 3.307,1.315c1.164,-0.148 2.365,-0.104 3.558,0.15l3.242,0.693c0.574,0.122 1.132,0.291 1.668,0.502c0,-0 0.749,0.063 0.749,0.064c2.421,-2.837 6.267,-4.312 10.183,-3.525l3.088,0.621c3.882,0.78 6.84,3.583 7.999,7.091l2.212,0.704c0.018,0.006 0.034,0.014 0.049,0.023l0.15,0.096c0.828,-0.053 1.676,-0.01 2.53,0.14l2.524,0.444c0.665,0.117 1.307,0.294 1.921,0.526l2.594,0.016c0.018,0 0.037,0.003 0.055,0.008l3.125,0.879c0.014,0.004 0.028,0.01 0.042,0.017c-0,-0 2.119,1.133 2.119,1.133l1.447,-0.338c0.018,-0.004 0.037,-0.006 0.055,-0.005l4.308,0.154c0.016,0 0.032,0.003 0.048,0.007l3.95,1.081c0.017,0.005 0.034,0.012 0.049,0.021c0,-0 0.931,0.537 0.931,0.537c2.172,-3.31 6.114,-5.267 10.299,-4.706l3.123,0.418c3.933,0.527 7.074,3.142 8.454,6.579c0.716,-0.09 1.45,-0.107 2.191,-0.047l3.447,0.282c0.896,0.073 1.761,0.257 2.582,0.539c0.288,-0.049 0.58,-0.086 0.874,-0.11c2.055,-2.637 5.281,-4.203 8.735,-4.088l2.912,0.097c3.479,0.116 6.68,1.929 8.569,4.852c1.889,2.924 2.227,6.587 0.904,9.807l-7.187,17.483c0.535,0.18 1.057,0.367 1.566,0.562c2.362,0.904 4.453,1.987 6.304,3.191c0.387,0.253 0.758,0.53 1.109,0.831l3.874,3.314c0.621,0.53 1.177,1.13 1.66,1.788l1.814,2.473c0.402,0.547 0.75,1.131 1.04,1.745l1.322,2.797c0.414,0.875 0.706,1.802 0.868,2.755l0.988,5.797c0.189,1.11 0.201,2.244 0.034,3.358l-0.869,5.809c-0.133,0.888 -0.378,1.755 -0.729,2.581l-1.237,2.912c-0.268,0.631 -0.597,1.235 -0.981,1.803l-1.6,2.363l0.502,2.129c0.071,0.298 0.128,0.6 0.172,0.903c0.218,1.493 0.339,3.077 0.339,4.755c-0,3.26 -0.371,6.158 -0.99,8.719l0.9,1.241c0.446,0.615 0.824,1.276 1.129,1.972l1.447,3.301c0.142,0.326 0.268,0.658 0.378,0.996c0.927,2.869 1.495,6.14 1.495,9.844c0,1.949 -0.169,3.805 -0.479,5.569c-0.061,0.346 -0.139,0.688 -0.234,1.026l-1.048,3.736c-0.2,0.712 -0.473,1.401 -0.816,2.056l-1.837,3.512c-0.351,0.67 -0.772,1.3 -1.256,1.881l-2.521,3.021c-0.236,0.284 -0.487,0.555 -0.752,0.812c-3.858,3.751 -8.759,6.79 -14.909,8.762c-4.09,1.311 -8.481,2.218 -13.182,2.677c-3.856,0.376 -7.517,0.559 -10.982,0.559c-7.084,0 -13.652,-1.451 -19.73,-4.242c-2.714,-1.247 -5.26,-2.763 -7.63,-4.561c-0.78,5.652 -3.913,12.184 -7.16,16.69c-0.007,0.009 -0.014,0.018 -0.023,0.027l-4.318,4.229c-0.016,0.017 -0.036,0.03 -0.057,0.04l-5.329,2.487c-0.021,0.01 -0.044,0.016 -0.067,0.018l-5.849,0.606c-0.023,0.003 -0.047,0.001 -0.07,-0.005l-5.877,-1.409c-0.012,-0.003 -0.023,-0.006 -0.034,-0.011c-1.501,-0.646 -3.083,-1.448 -4.66,-2.371c-0.244,0.366 -0.488,0.724 -0.732,1.075c-0.006,0.009 -0.013,0.017 -0.021,0.025l-3.899,4.049c-0.016,0.015 -0.033,0.029 -0.053,0.039l-4.844,2.578c-0.019,0.01 -0.04,0.017 -0.061,0.021l-5.401,0.972c-0.022,0.004 -0.044,0.004 -0.066,0.001l-5.568,-0.768c-0.011,-0.001 -0.022,-0.004 -0.032,-0.007c-8.376,-2.558 -18.606,-7.629 -24.326,-13.825c-1.777,-1.877 -3.324,-3.834 -4.651,-5.828l-1.166,0.118c-0.019,0.002 -0.038,0.001 -0.057,-0.002l-4.815,-0.846c-0.009,-0.002 -0.018,-0.004 -0.028,-0.007c-7.797,-2.517 -16.704,-6.568 -23.673,-11.407c-2.101,2.32 -4.482,4.454 -7.153,6.393c-4.173,3.028 -8.697,5.58 -13.578,7.643l-0.016,0.003l-0.006,0.004l-0.002,0.001l0.008,-0.002l-0.03,0.013c-0.731,0.306 -0.991,0.414 -1.006,0.42l-0.004,-0.007c-3.776,1.507 -8.346,2.914 -13.733,4.142c-5.353,1.221 -10.766,2.101 -16.241,2.639c-2.345,0.231 -4.677,0.443 -6.997,0.636c-2.683,0.222 -5.229,0.355 -7.638,0.402c-2.631,0.051 -5.002,0.001 -7.11,-0.133c0.11,-0 0.201,-0.087 0.207,-0.196c2.055,0.125 4.355,0.17 6.899,0.121c2.405,-0.047 4.947,-0.18 7.625,-0.402c2.318,-0.193 4.65,-0.404 6.993,-0.635c5.466,-0.538 10.871,-1.416 16.216,-2.635c5.76,-1.313 10.584,-2.831 14.501,-4.457c-0.509,0.212 -1.524,0.636 0.028,-0.012c0.06,-0.025 0.12,-0.05 0.179,-0.075c-0.063,0.026 -0.123,0.051 -0.179,0.075c-0.009,0.004 -0.019,0.008 -0.028,0.012c0.139,-0.059 0.241,-0.101 0.241,-0.101l0.012,-0.005c4.867,-2.057 9.376,-4.601 13.537,-7.62c2.711,-1.968 5.122,-4.137 7.243,-6.5c6.975,4.874 15.934,8.955 23.769,11.485l4.815,0.846l1.291,-0.131c1.336,2.021 2.899,4.004 4.699,5.906c5.698,6.172 15.891,11.22 24.235,13.768l5.568,0.768l5.401,-0.972l4.845,-2.578l3.899,-4.048c0.279,-0.402 0.559,-0.814 0.839,-1.235c1.625,0.96 3.259,1.792 4.806,2.459l5.878,1.409l5.849,-0.606l5.329,-2.486l4.317,-4.23c3.297,-4.576 6.48,-11.253 7.169,-16.953c2.438,1.884 5.067,3.466 7.877,4.756c6.051,2.779 12.59,4.224 19.643,4.224c3.459,-0 7.113,-0.183 10.962,-0.558c4.685,-0.458 9.062,-1.362 13.139,-2.669c6.116,-1.961 10.99,-4.982 14.827,-8.713c0.259,-0.252 0.505,-0.517 0.737,-0.795l2.521,-3.022c0.475,-0.569 0.888,-1.187 1.231,-1.844l1.838,-3.512c0.336,-0.642 0.604,-1.318 0.8,-2.016l1.047,-3.735c0.093,-0.332 0.17,-0.667 0.229,-1.006c0.309,-1.753 0.477,-3.597 0.477,-5.533c-0,-3.68 -0.564,-6.93 -1.485,-9.78c-0.108,-0.331 -0.231,-0.657 -0.371,-0.976l-1.447,-3.302c-0.298,-0.682 -0.67,-1.33 -1.107,-1.933l-0.956,-1.319c0.629,-2.569 1.006,-5.482 1.006,-8.763c0,-1.667 -0.119,-3.242 -0.336,-4.725c-0.043,-0.297 -0.1,-0.593 -0.169,-0.886l-0.522,-2.218l1.651,-2.438c0.376,-0.557 0.699,-1.149 0.961,-1.768l1.237,-2.911c0.344,-0.81 0.584,-1.66 0.715,-2.531l0.869,-5.809c0.164,-1.092 0.152,-2.204 -0.033,-3.292l-0.988,-5.797c-0.16,-0.935 -0.446,-1.843 -0.851,-2.701l-1.322,-2.797c-0.285,-0.602 -0.626,-1.174 -1.019,-1.711l-1.815,-2.473c-0.473,-0.645 -1.019,-1.233 -1.627,-1.753l-3.874,-3.314c-0.344,-0.295 -0.708,-0.567 -1.088,-0.814c-1.839,-1.197 -3.917,-2.273 -6.264,-3.171c-0.573,-0.22 -1.163,-0.43 -1.769,-0.631c0.01,-0.023 0.019,-0.047 0.029,-0.07l7.242,-17.619c1.297,-3.156 0.966,-6.747 -0.886,-9.613c-1.852,-2.867 -4.99,-4.644 -8.401,-4.758l-2.912,-0.097c-3.417,-0.114 -6.607,1.451 -8.62,4.08c-0.336,0.025 -0.67,0.067 -0.999,0.124c-0.82,-0.286 -1.685,-0.472 -2.581,-0.545l-3.448,-0.282c-0.782,-0.064 -1.555,-0.039 -2.308,0.067c-1.322,-3.443 -4.435,-6.077 -8.348,-6.601l-3.122,-0.418c-4.173,-0.559 -8.099,1.435 -10.204,4.779l-1.103,-0.636l-3.95,-1.081l-4.308,-0.154l-1.524,0.356l-2.189,-1.17l-3.125,-0.879l-2.631,-0.017c-0.612,-0.234 -1.253,-0.412 -1.918,-0.529l-2.524,-0.444c-0.861,-0.151 -1.715,-0.192 -2.548,-0.132l-0.208,-0.133l-2.314,-0.737c-1.113,-3.486 -4.033,-6.28 -7.875,-7.053l-3.088,-0.621c-3.877,-0.779 -7.683,0.703 -10.052,3.537l-0.887,-0.075c-0.535,-0.212 -1.091,-0.381 -1.663,-0.504l-3.243,-0.692c-1.194,-0.255 -2.396,-0.294 -3.559,-0.138c-0.998,-0.617 -2.111,-1.072 -3.305,-1.327l-3.243,-0.692c-0.436,-0.093 -0.874,-0.158 -1.313,-0.194l-2.434,-0.806c-1.146,-3.785 -4.409,-6.749 -8.585,-7.311l-3.122,-0.42c-4.256,-0.573 -8.258,1.511 -10.332,4.977l-0.899,0.166l-0.018,0.008Z" style="fill:#a7a7a7;"/><path d="M99.756,171.08c-3.953,1.659 -8.846,3.208 -14.708,4.544c-5.345,1.219 -10.75,2.097 -16.216,2.635c-2.343,0.231 -4.675,0.442 -6.993,0.635c-2.678,0.222 -5.22,0.355 -7.625,0.402c-2.631,0.051 -4.999,0.001 -7.106,-0.134l-0.25,-0.017c-16.136,-1.228 -27.215,-7.438 -34.289,-16.322c-6.075,-7.628 -10.377,-18.177 -11.743,-32.06c-0.243,-2.469 -0.414,-5.183 -0.504,-8.144c-0.082,-2.669 -0.119,-5.437 -0.113,-8.303c0.007,-2.921 0.074,-5.834 0.202,-8.736c0.127,-2.862 0.291,-5.58 0.493,-8.156c0.208,-2.649 0.436,-5.02 0.681,-7.111c0.007,-0.057 0.013,-0.113 0.021,-0.17c1.482,-11.809 4.995,-21.326 9.929,-28.755l0.021,-0.03c-1.368,-1.413 -2.671,-3.237 -3.791,-5.554c-1.206,-2.494 -1.836,-4.803 -2.056,-6.876l0.348,-5.512l1.138,-3.157l1.894,-2.944l0.659,-0.635c-0.182,-4.035 2.007,-7.98 5.873,-9.85l2.836,-1.371c3.622,-1.752 7.757,-1.218 10.773,1.032l2.86,-0.891l1.991,-0.091l1.138,-1.134l2.015,-1.084c-0,0 4.928,-3.87 9.713,-5.752c2.908,-1.145 9.257,-1.33 9.257,-1.33l1.714,-0.371c0.392,-0.187 0.8,-0.35 1.221,-0.489l2.49,-0.821c0.517,-0.17 1.036,-0.298 1.556,-0.385c0.494,-0.217 1.01,-0.398 1.547,-0.541l2.364,-0.625c0.585,-0.154 1.174,-0.256 1.761,-0.308l2.83,-1.165l5.333,-0.561l1.64,0.267l2.094,-1.375l4.097,-1.339l4.081,-0.346l2.466,0.427l0.787,-0.376c1.1,-3.886 4.42,-6.941 8.679,-7.496l3.123,-0.408c3.142,-0.41 6.139,0.626 8.322,2.591l2.641,-1.299l3.501,-0.758l3.312,-0.033l3.174,0.538l3.273,1.273l2.545,1.792l2.721,-1.063l3.554,-0.459l3.302,0.247l3.117,0.806l3.154,1.545l2.935,2.464l1.757,2.601l0.22,-0.097l0.899,-0.166c2.074,-3.466 6.076,-5.55 10.332,-4.977l3.122,0.42c4.176,0.562 7.439,3.526 8.585,7.311l2.434,0.806c0.439,0.036 0.877,0.101 1.313,0.194l3.243,0.692c1.194,0.255 2.307,0.71 3.305,1.327c1.163,-0.156 2.365,-0.117 3.559,0.138l3.243,0.692c0.572,0.123 1.128,0.292 1.663,0.504l0.887,0.075c2.369,-2.834 6.175,-4.316 10.052,-3.537l3.088,0.621c3.842,0.773 6.762,3.567 7.875,7.053l2.314,0.737l0.208,0.133c0.833,-0.06 1.687,-0.019 2.548,0.132l2.524,0.444c0.665,0.117 1.306,0.295 1.918,0.529l2.631,0.017l3.125,0.879l2.189,1.17l1.524,-0.356l4.308,0.154l3.95,1.081l1.103,0.636c2.105,-3.344 6.031,-5.338 10.204,-4.779l3.122,0.418c3.913,0.524 7.026,3.158 8.348,6.601c0.753,-0.106 1.526,-0.131 2.308,-0.067l3.448,0.282c0.896,0.073 1.761,0.259 2.581,0.545c0.329,-0.057 0.663,-0.099 0.999,-0.124c2.013,-2.629 5.203,-4.194 8.62,-4.08l2.912,0.097c3.411,0.114 6.549,1.891 8.401,4.758c1.852,2.866 2.183,6.457 0.886,9.613l-7.242,17.619c-0.01,0.023 -0.019,0.047 -0.029,0.07c0.606,0.201 1.196,0.411 1.769,0.631c2.347,0.898 4.425,1.974 6.264,3.171c0.38,0.247 0.744,0.519 1.088,0.814l3.874,3.314c0.608,0.52 1.154,1.108 1.627,1.753l1.815,2.473c0.393,0.537 0.734,1.109 1.019,1.711l1.322,2.797c0.405,0.858 0.691,1.766 0.851,2.701l0.988,5.797c0.185,1.088 0.197,2.2 0.033,3.292l-0.869,5.809c-0.131,0.871 -0.371,1.721 -0.715,2.531l-1.237,2.911c-0.262,0.619 -0.585,1.211 -0.961,1.768l-1.651,2.438l0.522,2.218c0.069,0.293 0.126,0.589 0.169,0.886c0.217,1.483 0.336,3.058 0.336,4.725c0,3.281 -0.377,6.194 -1.006,8.763l0.956,1.319c0.437,0.603 0.809,1.251 1.107,1.933l1.447,3.302c0.14,0.319 0.263,0.645 0.371,0.976c0.921,2.85 1.485,6.1 1.485,9.78c-0,1.936 -0.168,3.78 -0.477,5.533c-0.059,0.339 -0.136,0.674 -0.229,1.006l-1.047,3.735c-0.196,0.698 -0.464,1.374 -0.8,2.016l-1.838,3.512c-0.343,0.657 -0.756,1.275 -1.231,1.844l-2.521,3.022c-0.232,0.278 -0.478,0.543 -0.737,0.795c-3.837,3.731 -8.711,6.752 -14.827,8.713c-4.077,1.307 -8.454,2.211 -13.139,2.669c-3.849,0.375 -7.503,0.558 -10.962,0.558c-7.053,-0 -13.592,-1.445 -19.643,-4.224c-2.81,-1.29 -5.439,-2.872 -7.877,-4.756c-0.689,5.7 -3.872,12.377 -7.169,16.953l-4.317,4.23l-5.329,2.486l-5.849,0.606l-5.878,-1.409c-1.547,-0.667 -3.181,-1.499 -4.806,-2.459c-0.28,0.421 -0.56,0.833 -0.839,1.235l-3.899,4.048l-4.845,2.578l-5.401,0.972l-5.568,-0.768c-8.344,-2.548 -18.537,-7.596 -24.235,-13.768c-1.8,-1.902 -3.363,-3.885 -4.699,-5.906l-1.291,0.131l-4.815,-0.846c-7.835,-2.53 -16.794,-6.611 -23.769,-11.485c-2.121,2.363 -4.532,4.532 -7.243,6.5c-4.161,3.019 -8.67,5.563 -13.537,7.62l-0.012,0.005c-0,-0 -2.318,0.968 -0.034,0.014Z" style="fill:#fff;"/><path d="M218.467,50.577c1.516,-0.254 3.117,-0.386 4.804,-0.386c6.717,0 12.131,2.171 16.392,6.103c3.575,3.299 6.011,7.806 6.743,13.737c1.87,-0.867 3.86,-1.587 5.972,-2.156c4.841,-1.305 10.321,-1.994 16.45,-1.994c3.103,0 6.017,0.181 8.743,0.531c3.223,0.414 6.048,1.12 8.49,2.054c1.611,0.617 3.041,1.35 4.304,2.172l3.874,3.315l1.814,2.472l1.322,2.798l0.988,5.796l-0.869,5.809l-1.237,2.912l-1.815,2.68l-3.456,3.125l0.378,0.509l1.472,3.267l0.78,3.305c0.147,1.011 0.227,2.085 0.227,3.221c-0,3.961 -0.731,7.16 -1.856,9.66l-0.842,1.436l2.435,2.071l2.195,3.028l1.447,3.302c0.619,1.916 0.98,4.102 0.98,6.576c0,1.304 -0.11,2.545 -0.318,3.726l-1.048,3.735l-1.838,3.512l-2.52,3.022c-2.775,2.698 -6.323,4.844 -10.746,6.262c-3.404,1.091 -7.059,1.838 -10.971,2.22c-3.493,0.341 -6.81,0.509 -9.95,0.509c-5.49,0 -10.585,-1.109 -15.295,-3.273c-5.059,-2.323 -9.317,-5.924 -12.697,-10.893c-3.041,-4.471 -5.196,-10.242 -6.153,-17.423c-0.004,-0.033 -0.008,-0.066 -0.013,-0.099c-0.149,-1.21 -0.278,-2.461 -0.386,-3.756c-0.087,-1.033 -0.161,-2.1 -0.224,-3.202c-0.981,1.193 -1.968,2.316 -2.959,3.368c-0.031,0.032 -0.062,0.065 -0.093,0.097c-3.692,3.818 -7.472,6.876 -11.306,9.219c-5.034,3.077 -9.857,4.409 -14.338,4.409c-0.666,-0 -1.341,-0.029 -2.026,-0.089c1.426,2.176 2.556,4.807 3.26,7.768l1.264,-0.718l2.876,-0.73l2.618,0.169l2.157,-1.49l2.843,-0.852l2.09,-0.048l1.894,0.353l3.085,1.479c3.568,2.483 6.423,8.582 5.558,15.76c-0.442,4.117 -2.901,8.928 -5.296,12.252c-1.999,2.775 -5.659,3.788 -8.8,2.435c-3.765,-1.622 -8.351,-4.488 -10.838,-7.787c-0.393,-0.506 -0.756,-1.021 -1.091,-1.54c-1.688,4.22 -4.065,8.379 -6.391,11.725c-1.807,2.601 -5.088,3.737 -8.117,2.812c-6.735,-2.057 -15.09,-5.924 -19.662,-10.914c-3.56,-3.744 -5.916,-7.896 -7.141,-11.897c-0.229,0.233 -0.456,0.463 -0.683,0.69c-1.935,1.935 -4.791,2.623 -7.395,1.782c-9.472,-3.058 -21.046,-8.504 -26.774,-15.089c-0.775,-0.853 -1.499,-1.719 -2.171,-2.593c-0.458,1.175 -1.001,2.308 -1.626,3.401c-2.384,4.17 -5.622,7.776 -9.76,10.778c-3.526,2.559 -7.349,4.713 -11.473,6.455l-0.023,0.01c-3.491,1.465 -7.817,2.813 -12.993,3.993c-4.917,1.121 -9.89,1.929 -14.92,2.424c-2.291,0.226 -4.57,0.433 -6.836,0.621c-2.446,0.203 -4.768,0.325 -6.964,0.368c-2.31,0.045 -4.389,0.004 -6.239,-0.114c-0.042,-0.003 -0.084,-0.006 -0.125,-0.009c-12.602,-0.959 -21.406,-5.486 -26.931,-12.424c-5.025,-6.311 -8.394,-15.106 -9.524,-26.591c-0.222,-2.256 -0.377,-4.737 -0.459,-7.442c-0.078,-2.559 -0.115,-5.213 -0.108,-7.961c0.006,-2.776 0.07,-5.543 0.192,-8.301c0.121,-2.737 0.278,-5.338 0.471,-7.801c0.196,-2.501 0.41,-4.738 0.642,-6.712c0.003,-0.029 0.007,-0.057 0.01,-0.085c1.251,-9.961 4.109,-18.023 8.271,-24.289c5.182,-7.801 12.56,-12.24 22.21,-13.189c7.316,-0.72 12.773,0.685 16.559,3.098c3.456,2.202 6.165,5.234 7.998,9.193c1.773,-4.505 4.189,-8.508 7.223,-12.024c3.214,-3.722 6.995,-6.858 11.354,-9.395c4.17,-2.428 8.733,-4.274 13.697,-5.513c4.781,-1.194 9.794,-1.801 15.041,-1.801c6.129,0 11.906,0.847 17.335,2.506c5.712,1.744 10.748,4.308 15.134,7.645c2.384,1.814 4.504,3.829 6.361,6.044c0.933,-0.719 1.928,-1.372 2.983,-1.962c3.631,-2.027 7.589,-3.062 11.884,-3.062c5.489,-0 10.112,1.331 13.948,3.688c3.564,2.189 6.707,5.237 9.332,9.244l0.012,0.017c0.836,1.282 1.682,2.768 2.524,4.464c0.712,1.434 1.436,2.99 2.172,4.671c0.128,0.293 0.256,0.588 0.384,0.886c1.2,-2.747 2.482,-5.361 3.845,-7.843c0.121,-0.221 0.25,-0.438 0.387,-0.649c2.56,-3.952 5.551,-6.957 8.862,-9.125c1.714,-1.123 3.602,-2.025 5.672,-2.674l3.253,-18.511l2.524,0.444l0.123,1.843l0.145,0.025c0.317,-0.323 0.679,-0.607 1.087,-0.851c0.408,-0.245 0.876,-0.414 1.405,-0.507c0.528,-0.094 1.125,-0.082 1.79,0.035c1.553,0.273 2.707,1.073 3.46,2.399c0.754,1.327 0.931,3.131 0.53,5.413c-0.266,1.514 -0.714,2.75 -1.342,3.707c-0.628,0.958 -1.382,1.629 -2.26,2.013c-0.879,0.384 -1.843,0.484 -2.892,0.299c-0.652,-0.114 -1.208,-0.3 -1.668,-0.556c-0.459,-0.256 -0.837,-0.551 -1.133,-0.883c-0.296,-0.333 -0.543,-0.678 -0.74,-1.036l-0.179,-0.032c0.001,0.309 -0.015,0.652 -0.047,1.028c-0.032,0.377 -0.077,0.726 -0.133,1.048l-0.585,3.328Zm5.662,-14.371c-0.733,-0.129 -1.344,-0.087 -1.835,0.127c-0.491,0.213 -0.887,0.595 -1.191,1.146c-0.303,0.551 -0.541,1.271 -0.714,2.159l-0.071,0.403c-0.167,0.95 -0.213,1.771 -0.14,2.462c0.073,0.691 0.306,1.248 0.698,1.67c0.393,0.423 0.978,0.702 1.757,0.839c0.651,0.115 1.218,0.028 1.701,-0.26c0.484,-0.287 0.888,-0.746 1.213,-1.375c0.326,-0.63 0.569,-1.401 0.729,-2.315c0.244,-1.387 0.197,-2.5 -0.14,-3.337c-0.338,-0.837 -1.007,-1.343 -2.007,-1.519Zm17.257,8.102l-8.806,-1.381c-0.158,1.216 0.032,2.206 0.568,2.971c0.536,0.765 1.376,1.237 2.518,1.416c0.861,0.135 1.647,0.173 2.36,0.114c0.712,-0.059 1.461,-0.2 2.246,-0.423l-0.39,2.487c-0.714,0.213 -1.436,0.339 -2.164,0.378c-0.728,0.04 -1.586,-0.018 -2.574,-0.173c-1.313,-0.206 -2.434,-0.641 -3.365,-1.304c-0.93,-0.664 -1.6,-1.549 -2.012,-2.657c-0.411,-1.107 -0.498,-2.419 -0.26,-3.936c0.24,-1.531 0.701,-2.777 1.381,-3.738c0.68,-0.962 1.526,-1.639 2.537,-2.033c1.012,-0.394 2.133,-0.495 3.364,-0.301c1.208,0.189 2.207,0.594 2.997,1.213c0.79,0.62 1.351,1.418 1.682,2.395c0.28,0.828 0.37,1.763 0.268,2.805c0.383,-1.56 1.012,-2.746 1.888,-3.558c1.131,-1.05 2.492,-1.468 4.083,-1.255c0.662,0.089 1.233,0.253 1.712,0.494c0.478,0.241 0.88,0.534 1.205,0.88c0.324,0.346 0.589,0.723 0.793,1.131l0.133,0.018c-0.004,-0.25 -0.003,-0.616 0.003,-1.096c0.007,-0.48 0.039,-0.932 0.095,-1.355l0.63,-4.7l3.122,0.418l-2.522,18.832l-2.424,-0.325l-0.332,-1.845l-0.13,-0.017c-0.293,0.337 -0.642,0.634 -1.048,0.89c-0.405,0.257 -0.867,0.443 -1.386,0.559c-0.519,0.115 -1.115,0.128 -1.789,0.038c-1.559,-0.209 -2.743,-0.962 -3.552,-2.26c-0.724,-1.163 -1.002,-2.723 -0.831,-4.682Zm-4.952,-6.278c-0.832,-0.131 -1.55,0.033 -2.154,0.49c-0.603,0.457 -1.035,1.204 -1.295,2.242l5.758,0.903c0.098,-0.624 0.082,-1.191 -0.048,-1.701c-0.13,-0.51 -0.379,-0.935 -0.749,-1.274c-0.37,-0.34 -0.874,-0.56 -1.512,-0.66Zm10.606,10.826c1.168,0.156 2.032,-0.067 2.593,-0.669c0.562,-0.602 0.937,-1.57 1.126,-2.905l0.053,-0.397c0.194,-1.446 0.113,-2.582 -0.242,-3.409c-0.355,-0.827 -1.149,-1.323 -2.383,-1.488c-0.946,-0.127 -1.727,0.17 -2.342,0.891c-0.615,0.721 -1.017,1.79 -1.207,3.204c-0.19,1.422 -0.081,2.54 0.329,3.355c0.409,0.815 1.1,1.288 2.073,1.418Zm-222.093,6.418c-1.417,0.685 -2.82,0.709 -4.21,0.071c-1.39,-0.637 -2.589,-1.996 -3.594,-4.076c-1.011,-2.089 -1.333,-3.883 -0.967,-5.383c0.366,-1.5 1.271,-2.599 2.716,-3.297c0.602,-0.291 1.169,-0.468 1.701,-0.531c0.532,-0.063 1.029,-0.039 1.49,0.071c0.462,0.109 0.89,0.278 1.285,0.506l0.121,-0.058c-0.141,-0.207 -0.342,-0.512 -0.601,-0.917c-0.259,-0.404 -0.481,-0.799 -0.667,-1.183l-2.065,-4.269l2.836,-1.372l8.272,17.105l-2.201,1.065l-1.294,-1.357l-0.118,0.057c-0.059,0.443 -0.187,0.883 -0.384,1.321c-0.196,0.438 -0.48,0.848 -0.849,1.23c-0.37,0.382 -0.86,0.721 -1.471,1.017Zm-0.259,-2.698c1.06,-0.513 1.659,-1.175 1.796,-1.987c0.136,-0.811 -0.084,-1.826 -0.662,-3.045l-0.174,-0.36c-0.635,-1.314 -1.329,-2.217 -2.081,-2.712c-0.752,-0.494 -1.688,-0.47 -2.809,0.072c-0.859,0.416 -1.347,1.094 -1.463,2.034c-0.115,0.941 0.137,2.054 0.759,3.339c0.624,1.291 1.332,2.164 2.122,2.618c0.791,0.455 1.628,0.469 2.512,0.041Zm7.677,-16.219c1.119,-0.491 2.179,-0.689 3.179,-0.593c0.999,0.096 1.902,0.467 2.706,1.111c0.805,0.644 1.466,1.557 1.985,2.738l0.651,1.484l-8.188,3.593c0.523,1.109 1.217,1.841 2.08,2.196c0.864,0.356 1.826,0.301 2.885,-0.164c0.797,-0.35 1.48,-0.742 2.049,-1.175c0.568,-0.434 1.123,-0.956 1.664,-1.567l1.012,2.305c-0.488,0.564 -1.027,1.059 -1.62,1.485c-0.592,0.426 -1.346,0.84 -2.261,1.241c-1.217,0.534 -2.396,0.772 -3.537,0.714c-1.141,-0.057 -2.183,-0.442 -3.127,-1.153c-0.943,-0.711 -1.723,-1.77 -2.34,-3.175c-0.622,-1.42 -0.906,-2.717 -0.851,-3.894c0.054,-1.176 0.402,-2.203 1.042,-3.08c0.64,-0.877 1.53,-1.566 2.671,-2.066Zm0.941,2.131c-0.771,0.338 -1.288,0.863 -1.55,1.573c-0.262,0.71 -0.223,1.572 0.117,2.586l5.338,-2.342c-0.254,-0.578 -0.573,-1.047 -0.957,-1.407c-0.385,-0.359 -0.824,-0.582 -1.318,-0.669c-0.495,-0.087 -1.038,-0.001 -1.63,0.259Zm17.973,0.779c0.331,0.835 0.409,1.62 0.235,2.356c-0.174,0.736 -0.593,1.408 -1.257,2.016c-0.664,0.609 -1.56,1.137 -2.689,1.585c-0.877,0.348 -1.656,0.585 -2.338,0.711c-0.682,0.126 -1.362,0.175 -2.041,0.146l-0.985,-2.481c0.725,0.044 1.507,0.017 2.347,-0.079c0.839,-0.097 1.584,-0.274 2.234,-0.532c0.816,-0.324 1.351,-0.682 1.606,-1.073c0.254,-0.392 0.299,-0.794 0.135,-1.207c-0.1,-0.252 -0.258,-0.45 -0.474,-0.596c-0.216,-0.145 -0.573,-0.251 -1.071,-0.318c-0.499,-0.067 -1.224,-0.102 -2.176,-0.105c-0.926,-0.013 -1.721,-0.076 -2.384,-0.188c-0.663,-0.112 -1.222,-0.343 -1.674,-0.694c-0.453,-0.35 -0.819,-0.875 -1.097,-1.576c-0.449,-1.131 -0.342,-2.165 0.32,-3.103c0.662,-0.937 1.729,-1.698 3.2,-2.282c0.779,-0.309 1.544,-0.525 2.297,-0.647c0.752,-0.123 1.537,-0.16 2.353,-0.113l-0.056,2.526c-0.682,-0.014 -1.338,0.006 -1.969,0.06c-0.631,0.054 -1.239,0.198 -1.824,0.43c-0.634,0.251 -1.076,0.536 -1.327,0.855c-0.25,0.318 -0.306,0.652 -0.168,1.001c0.101,0.254 0.268,0.445 0.503,0.574c0.234,0.129 0.598,0.212 1.092,0.248c0.494,0.036 1.183,0.058 2.067,0.065c0.869,-0.004 1.634,0.045 2.298,0.146c0.663,0.101 1.231,0.324 1.703,0.67c0.473,0.346 0.852,0.881 1.14,1.605Zm0.49,-10.412l4.671,12.726l-2.957,1.085l-4.671,-12.726l2.957,-1.085Zm-3.263,-4.371c0.44,-0.161 0.864,-0.186 1.274,-0.075c0.41,0.111 0.722,0.458 0.936,1.041c0.207,0.563 0.191,1.023 -0.047,1.381c-0.238,0.358 -0.576,0.618 -1.016,0.779c-0.464,0.17 -0.897,0.194 -1.301,0.072c-0.404,-0.123 -0.709,-0.466 -0.915,-1.028c-0.214,-0.583 -0.206,-1.048 0.026,-1.394c0.232,-0.347 0.579,-0.606 1.043,-0.776Zm9.586,1.915c0.809,-0.267 1.59,-0.349 2.342,-0.246c0.753,0.103 1.462,0.399 2.128,0.888l0.104,-0.034l-0.266,-1.765l2.49,-0.821l4.275,12.97c0.403,1.223 0.514,2.324 0.331,3.305c-0.182,0.98 -0.662,1.834 -1.439,2.563c-0.778,0.729 -1.855,1.32 -3.232,1.774c-0.918,0.303 -1.785,0.522 -2.602,0.659c-0.817,0.137 -1.617,0.179 -2.399,0.128l-0.819,-2.485c0.827,0.089 1.685,0.081 2.572,-0.024c0.888,-0.105 1.781,-0.306 2.68,-0.602c0.983,-0.324 1.643,-0.845 1.98,-1.563c0.336,-0.718 0.335,-1.591 -0.005,-2.62l-0.115,-0.351c-0.079,-0.239 -0.16,-0.518 -0.242,-0.837c-0.082,-0.319 -0.146,-0.576 -0.194,-0.773l-0.095,0.031c-0.222,0.815 -0.599,1.48 -1.131,1.995c-0.531,0.515 -1.202,0.906 -2.014,1.174c-1.577,0.52 -3.002,0.34 -4.274,-0.538c-1.272,-0.878 -2.253,-2.363 -2.943,-4.457c-0.688,-2.085 -0.777,-3.871 -0.268,-5.359c0.51,-1.487 1.555,-2.491 3.136,-3.012Zm1.611,2.187c-0.614,0.203 -1.077,0.536 -1.389,1c-0.313,0.464 -0.47,1.048 -0.473,1.752c-0.003,0.705 0.15,1.525 0.458,2.461c0.462,1.4 1.047,2.378 1.756,2.934c0.709,0.556 1.544,0.676 2.504,0.36c0.531,-0.175 0.964,-0.393 1.299,-0.655c0.335,-0.262 0.575,-0.587 0.72,-0.975c0.146,-0.388 0.2,-0.845 0.163,-1.371c-0.037,-0.525 -0.168,-1.128 -0.392,-1.809l-0.15,-0.454c-0.335,-1.018 -0.714,-1.803 -1.137,-2.355c-0.422,-0.552 -0.909,-0.897 -1.459,-1.035c-0.55,-0.138 -1.184,-0.089 -1.9,0.147Zm14.648,-7.011c1.466,-0.388 2.715,-0.312 3.745,0.227c1.031,0.54 1.769,1.653 2.215,3.339l2.259,8.54l-3.036,0.803l-2.098,-7.928c-0.261,-0.987 -0.65,-1.675 -1.166,-2.063c-0.517,-0.388 -1.195,-0.472 -2.033,-0.25c-1.223,0.324 -1.962,0.931 -2.215,1.823c-0.254,0.891 -0.19,2.059 0.192,3.504l1.694,6.402l-3.045,0.806l-3.467,-13.105l2.363,-0.625l0.875,1.608l0.166,-0.044c0.171,-0.528 0.429,-0.992 0.775,-1.391c0.345,-0.4 0.758,-0.738 1.236,-1.015c0.479,-0.276 0.992,-0.487 1.54,-0.631Zm12.529,-2.862c1.199,-0.239 2.276,-0.203 3.232,0.107c0.955,0.309 1.756,0.865 2.403,1.668c0.647,0.803 1.096,1.837 1.347,3.102l0.316,1.589l-8.77,1.742c0.272,1.196 0.791,2.061 1.558,2.594c0.766,0.533 1.717,0.687 2.852,0.461c0.854,-0.169 1.605,-0.404 2.253,-0.705c0.649,-0.301 1.304,-0.691 1.964,-1.171l0.491,2.469c-0.598,0.446 -1.232,0.812 -1.902,1.101c-0.67,0.288 -1.495,0.529 -2.476,0.724c-1.303,0.259 -2.506,0.237 -3.608,-0.066c-1.102,-0.302 -2.036,-0.902 -2.804,-1.8c-0.768,-0.898 -1.301,-2.1 -1.6,-3.606c-0.302,-1.52 -0.299,-2.848 0.008,-3.985c0.307,-1.137 0.868,-2.065 1.682,-2.783c0.814,-0.718 1.832,-1.199 3.054,-1.441Zm0.459,2.284c-0.826,0.164 -1.443,0.564 -1.852,1.201c-0.409,0.637 -0.557,1.488 -0.444,2.551l5.717,-1.135c-0.123,-0.62 -0.333,-1.147 -0.631,-1.581c-0.298,-0.434 -0.678,-0.746 -1.143,-0.938c-0.464,-0.192 -1.013,-0.224 -1.647,-0.098Zm13.408,9.641c-1.56,0.203 -2.899,-0.216 -4.017,-1.259c-1.119,-1.044 -1.828,-2.711 -2.127,-5.002c-0.3,-2.301 -0.04,-4.105 0.78,-5.413c0.82,-1.308 2.026,-2.066 3.617,-2.273c0.663,-0.087 1.257,-0.076 1.782,0.032c0.524,0.108 0.988,0.287 1.392,0.537c0.403,0.25 0.757,0.545 1.06,0.886l0.133,-0.017c-0.069,-0.241 -0.163,-0.594 -0.282,-1.06c-0.118,-0.465 -0.205,-0.91 -0.26,-1.333l-0.614,-4.702l3.124,-0.408l2.458,18.84l-2.424,0.317l-0.801,-1.695l-0.129,0.017c-0.196,0.401 -0.456,0.779 -0.781,1.132c-0.325,0.353 -0.723,0.653 -1.194,0.9c-0.471,0.246 -1.043,0.413 -1.717,0.501Zm0.605,-2.642c1.168,-0.152 1.945,-0.592 2.331,-1.319c0.385,-0.728 0.496,-1.76 0.332,-3.099l-0.052,-0.397c-0.189,-1.446 -0.562,-2.523 -1.12,-3.229c-0.558,-0.706 -1.454,-0.978 -2.688,-0.817c-0.947,0.123 -1.623,0.613 -2.03,1.469c-0.406,0.856 -0.517,1.992 -0.332,3.408c0.185,1.422 0.581,2.473 1.188,3.153c0.607,0.681 1.397,0.958 2.371,0.831Zm19.583,-16.815c0.938,0.075 1.749,0.292 2.432,0.65c0.683,0.359 1.202,0.839 1.557,1.441c0.355,0.602 0.5,1.315 0.434,2.14c-0.088,1.109 -0.502,2.017 -1.241,2.725c-0.739,0.708 -1.641,1.315 -2.708,1.821l3.665,4.161c0.413,-0.517 0.775,-1.086 1.085,-1.707c0.31,-0.621 0.578,-1.269 0.805,-1.943l3.243,0.259c-0.334,0.96 -0.766,1.925 -1.297,2.897c-0.531,0.971 -1.181,1.846 -1.952,2.627l3.371,3.845l-3.975,-0.317l-1.556,-1.777c-0.524,0.342 -1.082,0.632 -1.671,0.869c-0.59,0.236 -1.218,0.407 -1.887,0.513c-0.668,0.105 -1.394,0.127 -2.18,0.064c-1.27,-0.101 -2.348,-0.391 -3.232,-0.868c-0.884,-0.478 -1.543,-1.113 -1.976,-1.904c-0.433,-0.791 -0.61,-1.694 -0.529,-2.71c0.068,-0.847 0.264,-1.565 0.589,-2.152c0.325,-0.588 0.768,-1.094 1.33,-1.518c0.562,-0.425 1.218,-0.812 1.97,-1.162c-0.364,-0.492 -0.672,-0.969 -0.923,-1.429c-0.25,-0.46 -0.432,-0.925 -0.544,-1.397c-0.112,-0.472 -0.147,-0.971 -0.105,-1.497c0.066,-0.835 0.33,-1.537 0.79,-2.106c0.46,-0.57 1.079,-0.986 1.856,-1.249c0.778,-0.263 1.66,-0.355 2.649,-0.276Zm-0.24,2.458c-0.522,-0.041 -0.993,0.056 -1.413,0.291c-0.42,0.236 -0.655,0.657 -0.703,1.263c-0.039,0.484 0.049,0.951 0.263,1.4c0.214,0.449 0.524,0.931 0.928,1.446c0.841,-0.387 1.474,-0.779 1.901,-1.177c0.427,-0.397 0.662,-0.877 0.707,-1.438c0.043,-0.536 -0.103,-0.957 -0.438,-1.265c-0.336,-0.307 -0.75,-0.48 -1.245,-0.52Zm-1.786,7.542c-0.444,0.243 -0.828,0.497 -1.15,0.763c-0.323,0.267 -0.58,0.562 -0.773,0.888c-0.192,0.326 -0.306,0.71 -0.341,1.153c-0.063,0.789 0.168,1.437 0.695,1.942c0.526,0.505 1.232,0.793 2.117,0.863c0.732,0.059 1.396,0.004 1.991,-0.164c0.595,-0.168 1.121,-0.399 1.579,-0.691l-4.118,-4.754Zm19.719,-7.778c0.929,0.154 1.718,0.438 2.368,0.853c0.65,0.415 1.127,0.938 1.43,1.568c0.302,0.63 0.386,1.353 0.251,2.169c-0.182,1.097 -0.671,1.967 -1.467,2.61c-0.796,0.643 -1.747,1.171 -2.853,1.585l3.3,4.456c0.455,-0.48 0.864,-1.016 1.225,-1.608c0.361,-0.593 0.684,-1.216 0.967,-1.868l3.209,0.532c-0.414,0.928 -0.926,1.854 -1.537,2.777c-0.611,0.922 -1.334,1.74 -2.167,2.452l3.032,4.117l-3.933,-0.652l-1.4,-1.903c-0.552,0.297 -1.132,0.538 -1.739,0.724c-0.607,0.186 -1.249,0.303 -1.923,0.352c-0.675,0.048 -1.401,0.008 -2.178,-0.121c-1.257,-0.208 -2.306,-0.588 -3.147,-1.139c-0.841,-0.551 -1.443,-1.239 -1.808,-2.064c-0.365,-0.825 -0.464,-1.74 -0.297,-2.745c0.139,-0.839 0.395,-1.537 0.769,-2.095c0.373,-0.558 0.858,-1.024 1.454,-1.4c0.595,-0.375 1.282,-0.705 2.061,-0.99c-0.322,-0.522 -0.588,-1.023 -0.798,-1.502c-0.211,-0.48 -0.353,-0.959 -0.424,-1.439c-0.072,-0.48 -0.065,-0.98 0.021,-1.5c0.137,-0.826 0.459,-1.504 0.966,-2.032c0.507,-0.528 1.159,-0.891 1.955,-1.087c0.797,-0.196 1.685,-0.213 2.663,-0.05Zm-0.447,2.429c-0.517,-0.086 -0.994,-0.029 -1.433,0.17c-0.439,0.199 -0.708,0.598 -0.807,1.198c-0.08,0.48 -0.032,0.952 0.143,1.418c0.176,0.465 0.443,0.972 0.803,1.519c0.87,-0.314 1.534,-0.651 1.993,-1.011c0.459,-0.361 0.735,-0.818 0.827,-1.373c0.088,-0.531 -0.022,-0.963 -0.33,-1.298c-0.308,-0.334 -0.707,-0.542 -1.196,-0.623Zm-2.419,7.363c-0.463,0.204 -0.866,0.425 -1.21,0.663c-0.344,0.238 -0.626,0.511 -0.845,0.819c-0.219,0.308 -0.365,0.681 -0.438,1.12c-0.13,0.781 0.046,1.446 0.528,1.994c0.482,0.548 1.16,0.894 2.036,1.04c0.725,0.12 1.391,0.121 1.998,0.004c0.607,-0.117 1.151,-0.302 1.632,-0.554l-3.701,-5.086Zm19.075,10.977c-1.56,-0.21 -2.743,-0.964 -3.551,-2.263c-0.808,-1.298 -1.058,-3.092 -0.75,-5.382c0.309,-2.3 1.03,-3.975 2.163,-5.024c1.132,-1.049 2.494,-1.466 4.084,-1.252c0.662,0.089 1.233,0.254 1.711,0.495c0.479,0.241 0.88,0.535 1.205,0.881c0.324,0.347 0.588,0.724 0.792,1.132l0.133,0.018c-0.004,-0.251 -0.002,-0.616 0.005,-1.096c0.007,-0.481 0.038,-0.932 0.095,-1.355l0.633,-4.7l3.122,0.42l-2.535,18.83l-2.423,-0.326l-0.331,-1.845l-0.129,-0.018c-0.294,0.337 -0.644,0.634 -1.049,0.89c-0.406,0.257 -0.868,0.443 -1.387,0.558c-0.519,0.115 -1.115,0.127 -1.788,0.037Zm1.272,-2.393c1.167,0.157 2.032,-0.066 2.594,-0.667c0.561,-0.602 0.937,-1.57 1.127,-2.905l0.054,-0.397c0.194,-1.446 0.114,-2.582 -0.24,-3.409c-0.355,-0.827 -1.149,-1.324 -2.383,-1.49c-0.946,-0.127 -1.727,0.17 -2.342,0.89c-0.615,0.721 -1.018,1.789 -1.209,3.204c-0.191,1.421 -0.082,2.539 0.326,3.354c0.409,0.815 1.1,1.289 2.073,1.42Zm15.73,-8.707c1.196,0.252 2.172,0.709 2.929,1.369c0.757,0.66 1.275,1.487 1.554,2.479c0.279,0.992 0.285,2.12 0.019,3.381l-0.334,1.586l-8.749,-1.846c-0.22,1.206 -0.083,2.205 0.412,2.997c0.496,0.792 1.309,1.307 2.441,1.546c0.852,0.18 1.636,0.259 2.35,0.237c0.715,-0.022 1.47,-0.123 2.266,-0.304l-0.52,2.463c-0.724,0.174 -1.451,0.262 -2.181,0.264c-0.729,0.001 -1.583,-0.101 -2.561,-0.308c-1.301,-0.274 -2.398,-0.767 -3.292,-1.478c-0.894,-0.712 -1.517,-1.631 -1.87,-2.759c-0.353,-1.127 -0.371,-2.442 -0.054,-3.944c0.32,-1.516 0.845,-2.736 1.574,-3.661c0.73,-0.924 1.61,-1.557 2.641,-1.897c1.031,-0.341 2.156,-0.382 3.375,-0.125Zm-0.476,2.281c-0.824,-0.174 -1.549,-0.049 -2.176,0.376c-0.626,0.425 -1.096,1.149 -1.41,2.171l5.703,1.204c0.13,-0.618 0.144,-1.185 0.041,-1.701c-0.103,-0.516 -0.331,-0.954 -0.682,-1.312c-0.351,-0.359 -0.843,-0.605 -1.476,-0.738Zm6.872,13.2l-2.209,-14.333l3.242,0.692l1.017,8.216c0.042,0.341 0.075,0.707 0.097,1.098c0.022,0.39 0.031,0.765 0.026,1.123c-0.005,0.358 -0.022,0.673 -0.05,0.946l0.098,0.021c0.094,-0.269 0.216,-0.569 0.366,-0.9c0.151,-0.33 0.317,-0.666 0.499,-1.008c0.182,-0.341 0.358,-0.657 0.528,-0.947l4.283,-7.084l3.243,0.693l-7.879,12.179l-3.261,-0.696Zm16.229,-10.681c1.198,0.248 2.176,0.702 2.934,1.359c0.759,0.658 1.28,1.483 1.562,2.475c0.282,0.991 0.292,2.118 0.03,3.381l-0.33,1.587l-8.754,-1.819c-0.217,1.207 -0.076,2.205 0.422,2.996c0.497,0.79 1.313,1.302 2.445,1.538c0.853,0.177 1.636,0.253 2.351,0.23c0.714,-0.024 1.469,-0.128 2.265,-0.312l-0.512,2.465c-0.724,0.177 -1.451,0.267 -2.181,0.271c-0.729,0.004 -1.583,-0.096 -2.562,-0.3c-1.301,-0.27 -2.4,-0.759 -3.296,-1.468c-0.897,-0.709 -1.523,-1.626 -1.879,-2.752c-0.357,-1.127 -0.379,-2.441 -0.066,-3.944c0.315,-1.518 0.836,-2.74 1.563,-3.667c0.726,-0.926 1.604,-1.561 2.634,-1.905c1.03,-0.344 2.155,-0.389 3.374,-0.135Zm-0.468,2.282c-0.824,-0.172 -1.549,-0.044 -2.174,0.383c-0.626,0.427 -1.094,1.152 -1.404,2.175l5.706,1.186c0.129,-0.618 0.141,-1.186 0.036,-1.701c-0.105,-0.516 -0.333,-0.952 -0.686,-1.31c-0.352,-0.357 -0.845,-0.602 -1.478,-0.733Zm7.446,13.231l-3.088,-0.621l3.745,-18.628l3.088,0.621l-3.745,18.628Zm14.91,-4.035c-0.214,1.111 -0.551,2.065 -1.012,2.861c-0.462,0.797 -1.026,1.44 -1.692,1.931c-0.666,0.491 -1.422,0.812 -2.267,0.964c-0.845,0.151 -1.757,0.133 -2.736,-0.056c-0.911,-0.175 -1.724,-0.488 -2.439,-0.939c-0.715,-0.452 -1.295,-1.029 -1.741,-1.731c-0.447,-0.702 -0.744,-1.512 -0.892,-2.43c-0.148,-0.919 -0.116,-1.932 0.098,-3.041c0.283,-1.472 0.778,-2.668 1.486,-3.587c0.707,-0.919 1.59,-1.556 2.649,-1.91c1.059,-0.354 2.245,-0.404 3.559,-0.152c1.24,0.238 2.279,0.717 3.118,1.435c0.839,0.718 1.431,1.638 1.776,2.761c0.345,1.122 0.376,2.42 0.093,3.894Zm-9.515,-1.827c-0.181,0.938 -0.225,1.758 -0.132,2.459c0.092,0.701 0.341,1.268 0.746,1.702c0.405,0.433 0.978,0.721 1.719,0.864c0.741,0.142 1.377,0.087 1.909,-0.167c0.532,-0.253 0.971,-0.688 1.316,-1.305c0.346,-0.617 0.609,-1.393 0.789,-2.328c0.182,-0.95 0.225,-1.769 0.126,-2.456c-0.098,-0.688 -0.348,-1.244 -0.751,-1.668c-0.403,-0.425 -0.977,-0.709 -1.723,-0.852c-1.11,-0.214 -1.987,0.005 -2.629,0.655c-0.642,0.651 -1.099,1.683 -1.37,3.096Zm62.064,10.135c-0.054,-0.314 -0.119,-0.713 -0.195,-1.197c-0.076,-0.485 -0.154,-0.989 -0.234,-1.513c-0.079,-0.524 -0.155,-1.009 -0.227,-1.455c-0.072,-0.445 -0.121,-0.781 -0.146,-1.009l-0.1,-0.008c-0.061,0.22 -0.16,0.545 -0.295,0.973c-0.135,0.429 -0.285,0.897 -0.448,1.404c-0.164,0.507 -0.324,0.996 -0.481,1.467c-0.156,0.471 -0.29,0.862 -0.401,1.172l-2.056,5.632l-3.423,-0.279l-2.683,-13.821l3.153,0.258l1.146,6.58c0.087,0.45 0.158,0.953 0.214,1.508c0.056,0.556 0.107,1.088 0.152,1.597c0.045,0.509 0.071,0.923 0.079,1.241l0.099,0.009c0.048,-0.218 0.114,-0.502 0.199,-0.854c0.085,-0.351 0.181,-0.716 0.287,-1.094c0.106,-0.378 0.208,-0.732 0.306,-1.064c0.099,-0.331 0.181,-0.581 0.247,-0.75l2.497,-6.746l3.447,0.282l1.294,7.056c0.061,0.296 0.124,0.69 0.189,1.182c0.064,0.492 0.119,0.984 0.163,1.475c0.045,0.491 0.06,0.895 0.047,1.212l0.099,0.008c0.057,-0.279 0.148,-0.664 0.275,-1.153c0.127,-0.489 0.27,-1.01 0.431,-1.564c0.16,-0.554 0.32,-1.05 0.479,-1.487l2.24,-6.303l3.112,0.254l-4.941,13.198l-3.483,-0.285l-1.042,-5.926Zm16.75,-11.2l-7.241,17.619l-2.912,-0.098l7.242,-17.618l2.911,0.097Z" style="fill:#f18282;"/><path d="M208.603,155.555c-0.317,-6.932 2.657,-7.755 4.64,-6.375c1.982,1.379 2.973,4.962 2.477,8.955c-0.298,2.975 -2.231,6.402 -3.966,8.81c-2.726,-1.174 -6.145,-3.12 -7.929,-5.519c-2.478,-3.171 -3.469,-6.753 -2.478,-8.955c0.992,-2.203 3.965,-3.026 7.256,3.084Zm-31.264,-4.525c-1.101,-12.829 4.87,-14.897 8.986,-12.667c4.117,2.23 6.378,8.758 5.655,16.321c-0.393,5.621 -4.07,12.379 -7.417,17.194c-5.609,-1.712 -12.679,-4.747 -16.465,-8.92c-5.248,-5.494 -7.509,-12.023 -5.655,-16.321c1.854,-4.299 7.825,-6.367 14.896,4.393Zm-35.009,-29.681c1.403,-14.944 11.02,-17.241 16.916,-13.987c5.895,3.254 8.069,12.058 5.434,22.01c-1.736,7.407 -8.762,16.077 -14.888,22.202c-8.3,-2.679 -18.585,-7.216 -23.582,-13.015c-6.982,-7.656 -9.155,-16.46 -5.433,-22.01c3.721,-5.551 13.339,-7.847 21.553,4.8Zm118.481,27.14c-3.928,0 -7.577,-0.774 -10.947,-2.321c-3.37,-1.548 -6.181,-3.977 -8.432,-7.287c-2.252,-3.31 -3.732,-7.623 -4.44,-12.94c-0.133,-1.078 -0.248,-2.194 -0.345,-3.348c-0.096,-1.154 -0.177,-2.355 -0.241,-3.603c-0.065,-1.249 -0.112,-2.522 -0.142,-3.818c-0.03,-1.297 -0.045,-2.641 -0.045,-4.032c-0,-6.832 0.733,-12.501 2.199,-17.007c1.466,-4.505 3.601,-8.059 6.404,-10.662c2.803,-2.603 6.226,-4.449 10.268,-5.539c4.041,-1.089 8.621,-1.634 13.738,-1.634c2.632,0 5.103,0.149 7.415,0.446c2.312,0.297 4.343,0.781 6.095,1.451c1.751,0.67 3.124,1.564 4.118,2.681c0.994,1.117 1.491,2.498 1.491,4.143c-0,1.948 -0.504,3.527 -1.51,4.737c-1.007,1.209 -2.247,2.039 -3.719,2.491c-1.121,0.322 -2.507,0.586 -4.16,0.791c-1.653,0.205 -3.341,0.362 -5.065,0.47c-1.723,0.108 -3.283,0.179 -4.678,0.211c-1.223,0.032 -2.231,0.163 -3.023,0.394c-0.792,0.23 -1.41,0.57 -1.855,1.019c-0.444,0.449 -0.756,1.009 -0.937,1.679c-0.18,0.67 -0.27,1.427 -0.27,2.27c-0,0.682 0.105,1.289 0.315,1.821c0.211,0.532 0.615,0.94 1.214,1.223c0.599,0.283 1.467,0.425 2.605,0.425c0.803,0 1.585,-0.016 2.347,-0.048c0.762,-0.033 1.512,-0.081 2.251,-0.145c0.738,-0.065 1.476,-0.113 2.215,-0.146c0.738,-0.032 1.47,-0.048 2.196,-0.048c2.52,0 4.409,0.675 5.666,2.025c1.258,1.35 1.887,3.236 1.887,5.659c0,3.667 -0.868,6.207 -2.605,7.619c-1.736,1.412 -3.776,2.118 -6.12,2.118l-2.479,-0c-0.799,-0 -1.563,-0.007 -2.293,-0.021c-0.73,-0.014 -1.425,-0.021 -2.086,-0.021l-1.81,0c-1.3,0 -2.324,0.117 -3.071,0.349c-0.747,0.233 -1.267,0.566 -1.559,0.999c-0.292,0.433 -0.437,0.988 -0.437,1.665c-0,0.724 0.081,1.381 0.244,1.973c0.163,0.592 0.434,1.103 0.812,1.534c0.377,0.431 0.881,0.791 1.51,1.082c0.629,0.29 1.399,0.51 2.311,0.66c0.913,0.149 2.006,0.224 3.281,0.224c1.262,0 2.57,-0.01 3.922,-0.031c1.352,-0.021 2.651,-0.034 3.896,-0.041c1.245,-0.007 2.296,-0.011 3.155,-0.011c2.589,0 4.517,0.696 5.786,2.087c1.268,1.391 1.903,3.354 1.903,5.888c-0,2.685 -0.857,4.861 -2.57,6.526c-1.713,1.666 -3.934,2.936 -6.665,3.811c-2.73,0.876 -5.664,1.467 -8.802,1.773c-3.138,0.306 -6.118,0.459 -8.938,0.459Zm-63.464,-21.553c-2.882,0 -6,-0.994 -9.353,-2.981c-3.353,-1.988 -6.706,-4.608 -10.058,-7.86c-1.589,-1.531 -3.188,-3.26 -4.798,-5.188c-1.61,-1.929 -3.185,-3.96 -4.726,-6.094c-1.541,-2.135 -2.999,-4.327 -4.373,-6.577c-1.375,-2.251 -2.631,-4.485 -3.77,-6.704c-1.139,-2.219 -2.137,-4.343 -2.993,-6.37c-0.918,-2.247 -1.634,-4.41 -2.147,-6.488c-0.514,-2.078 -0.771,-4.04 -0.771,-5.886c0,-2.705 0.619,-5.081 1.855,-7.128c1.237,-2.047 2.894,-3.65 4.972,-4.811c2.079,-1.16 4.347,-1.74 6.806,-1.74c3.334,-0 6.166,0.715 8.496,2.147c2.331,1.431 4.354,3.457 6.071,6.077c0.638,0.977 1.277,2.112 1.919,3.405c0.642,1.293 1.295,2.698 1.959,4.214c0.663,1.516 1.329,3.101 1.997,4.756c0.668,1.654 1.325,3.318 1.969,4.993c0.644,1.674 1.259,3.321 1.844,4.942c0.618,1.654 1.264,2.984 1.937,3.989c0.673,1.005 1.34,1.508 2.001,1.508c0.666,-0 1.387,-0.51 2.165,-1.529c0.778,-1.019 1.499,-2.427 2.165,-4.222c1.394,-3.603 2.792,-7.163 4.195,-10.681c1.403,-3.518 2.946,-6.81 4.63,-9.876c1.693,-2.614 3.634,-4.639 5.824,-6.073c2.191,-1.434 4.893,-2.151 8.108,-2.151c3.805,-0 6.914,1.114 9.328,3.341c2.413,2.228 3.62,5.547 3.62,9.957c-0,2.078 -0.265,4.267 -0.795,6.568c-0.531,2.301 -1.291,4.654 -2.28,7.06c-0.727,1.886 -1.589,3.862 -2.586,5.929c-0.996,2.066 -2.078,4.151 -3.246,6.255c-1.167,2.103 -2.399,4.154 -3.695,6.153c-1.296,1.999 -2.625,3.899 -3.988,5.701c-1.362,1.801 -2.738,3.438 -4.127,4.912c-3.024,3.128 -6.107,5.652 -9.249,7.572c-3.141,1.92 -6.11,2.88 -8.906,2.88Zm-89.38,-14.542c-4.759,-0 -9.18,-0.644 -13.263,-1.93c-4.084,-1.287 -7.65,-3.173 -10.699,-5.658c-3.048,-2.485 -5.425,-5.525 -7.129,-9.121c-1.704,-3.596 -2.556,-7.716 -2.556,-12.359c0,-4.561 0.679,-8.702 2.036,-12.424c1.357,-3.722 3.267,-7.01 5.732,-9.865c2.464,-2.854 5.367,-5.255 8.709,-7.2c3.342,-1.946 7.002,-3.416 10.98,-4.409c3.978,-0.994 8.15,-1.49 12.517,-1.49c5.052,-0 9.816,0.683 14.292,2.051c4.476,1.367 8.433,3.358 11.87,5.973c3.437,2.615 6.13,5.795 8.08,9.54c1.95,3.744 2.925,7.996 2.925,12.755c-0,5.255 -1.191,9.989 -3.573,14.203c-2.381,4.213 -5.624,7.803 -9.728,10.769c-4.104,2.966 -8.758,5.235 -13.961,6.807c-5.203,1.572 -10.614,2.358 -16.232,2.358Zm4.902,-25.759c2.85,-0 5.145,-0.476 6.884,-1.428c1.739,-0.953 3.002,-2.166 3.789,-3.641c0.787,-1.475 1.181,-2.987 1.181,-4.536c-0,-1.47 -0.27,-2.826 -0.809,-4.068c-0.539,-1.241 -1.298,-2.328 -2.277,-3.259c-0.979,-0.932 -2.121,-1.657 -3.424,-2.175c-1.303,-0.519 -2.705,-0.778 -4.204,-0.778c-1.409,0 -2.77,0.214 -4.084,0.642c-1.313,0.427 -2.489,1.038 -3.525,1.831c-1.037,0.793 -1.861,1.755 -2.473,2.887c-0.611,1.132 -0.917,2.386 -0.917,3.762c0,1.404 0.246,2.747 0.737,4.027c0.492,1.281 1.176,2.427 2.051,3.439c0.876,1.012 1.917,1.815 3.124,2.408c1.206,0.592 2.521,0.889 3.947,0.889Zm-64.431,71.736c-9.071,-0.69 -15.595,-3.532 -19.572,-8.526c-3.977,-4.994 -6.412,-12.034 -7.307,-21.122c-0.201,-2.043 -0.339,-4.29 -0.413,-6.739c-0.075,-2.45 -0.11,-4.99 -0.104,-7.62c0.006,-2.63 0.067,-5.252 0.182,-7.865c0.116,-2.613 0.266,-5.096 0.45,-7.448c0.184,-2.352 0.385,-4.456 0.603,-6.313c1.018,-8.112 3.222,-14.719 6.612,-19.822c3.39,-5.103 8.241,-7.965 14.553,-8.587c4.367,-0.429 7.681,0.076 9.941,1.516c2.26,1.441 3.859,3.593 4.797,6.456c0.937,2.864 1.598,6.241 1.98,10.132c0.122,1.239 0.241,2.519 0.355,3.841c0.115,1.322 0.239,2.663 0.373,4.023c0.134,1.36 0.276,2.728 0.427,4.105c0.151,1.377 0.313,2.722 0.485,4.035c0.172,1.313 0.356,2.604 0.552,3.872c0.195,1.268 0.414,2.475 0.656,3.621c0.403,1.906 0.906,3.572 1.508,4.996c0.602,1.425 1.376,2.607 2.321,3.545c0.945,0.939 2.093,1.619 3.443,2.04c1.35,0.422 2.955,0.605 4.816,0.552c4.33,0.005 8.395,0.108 12.196,0.31c3.801,0.202 6.883,0.454 9.247,0.757c1.495,0.05 3.097,0.25 4.807,0.599c1.709,0.349 3.149,0.897 4.318,1.644c1.186,0.788 2.127,1.841 2.824,3.158c0.696,1.317 1.154,3.098 1.375,5.343c0.382,3.879 -0.26,7.275 -1.926,10.188c-1.665,2.914 -3.943,5.42 -6.834,7.518c-2.891,2.098 -6.028,3.861 -9.41,5.29c-3.028,1.271 -6.787,2.418 -11.277,3.442c-4.49,1.024 -9.031,1.762 -13.624,2.214c-2.238,0.22 -4.464,0.422 -6.679,0.606c-2.214,0.184 -4.315,0.296 -6.303,0.334c-1.989,0.039 -3.779,0.007 -5.372,-0.095Z" style="fill:#ffd2d2;"/></svg>