<?xml version="1.0" encoding="UTF-8" standalone="no"?>
<!DOCTYPE svg PUBLIC "-//W3C//DTD SVG 1.1//EN" "http://www.w3.org/Graphics/SVG/1.1/DTD/svg11.dtd">
<svg width="100%" height="100%" viewBox="0 0 2500 2500" version="1.1" xmlns="http://www.w3.org/2000/svg" xmlns:xlink="http://www.w3.org/1999/xlink" xml:space="preserve" style="fill-rule:evenodd;clip-rule:evenodd;stroke-linejoin:round;stroke-miterlimit:2;">
    <g>
        <path d="M110.295,514.212C262.832,612.77 2389.7,814.942 2389.7,814.942C712.118,1639.96 285.659,2033.82 285.659,2033.82C329.134,1831.99 346.889,1648.29 347.616,1483.43C455.589,1528.37 637.477,1562.44 940.023,1535.26L1049.45,1395.03L337.836,1261.34C293.635,778.718 110.295,514.212 110.295,514.212Z" style="fill:rgb(59,73,119);"/>
        <path d="M226.971,550.1C295.088,665.673 398.353,897.923 425.888,1277.65L337.836,1261.34C293.635,778.718 110.295,514.212 110.295,514.212C127.324,525.081 167.907,537.039 226.971,550.1ZM432.775,1511.72C431.323,1641.79 421.543,1785.62 400.156,1943.6C318.278,2004.11 285.659,2033.83 285.659,2033.83C329.134,1832.01 346.889,1648.3 347.616,1483.44C375.276,1494.93 403.738,1504.38 432.775,1511.72Z" style="fill:rgb(203,81,66);"/>
        <path d="M421.893,940.308C421.893,940.308 934.588,363.127 1607.43,771.831C1607.43,771.831 1843.3,924.368 1652,1137.42C1652,1137.42 1137.14,1786 426.251,1408.44C426.251,1408.44 307.409,1294.68 307.409,1241.41C307.409,1187.42 295.451,1103.73 350.521,1055.18C405.954,1006.62 421.893,940.308 421.893,940.308Z" style="fill:rgb(203,81,66);"/>
        <path d="M470.452,1432.36C470.452,1432.36 175.144,1311 246.529,1158.81C246.529,1158.81 384.203,728.732 1012.85,591.045C1012.85,591.045 1526.27,526.183 1766.48,902.644C1766.48,902.644 1680.26,1459.54 898.338,1574.04C898.338,1574.04 389.625,1630.55 214.261,1389.24C214.261,1389.24 423.32,1596.86 1001.95,1498.68C1001.95,1498.68 1509.23,1407.01 1695.46,985.261C1695.46,985.261 1720.82,911.346 1624.79,836.705C1624.79,836.705 1161.01,356.254 499.051,897.209C499.051,897.209 846.887,732.714 1093.64,705.905L1170.81,764.97C1170.81,764.97 1490.73,783.815 1650.88,912.073C1650.88,912.073 1333.5,781.273 1170.81,842.14L1077.68,918.96C1077.68,918.96 672.599,884.538 472.229,1001.58C409.196,1034.55 305.205,1105.57 313.168,1211C313.531,1216.43 314.257,1221.87 315.334,1227.67C325.515,1280.92 366.824,1349.39 470.452,1432.36Z" style="fill:rgb(59,73,119);"/>
        <path d="M586.765,918.947C586.765,918.947 760.677,808.431 1050.54,764.957L1122.29,798.652L1066.85,852.645C1066.84,852.632 734.958,864.954 586.765,918.947Z" style="fill:white;"/>
        <path d="M1602,893.578C1602,893.578 1697.65,942.487 1648.76,994.664C1648.76,994.664 1617.21,1038.15 1559.61,1085.97C1559.61,1085.97 1648.76,1026.56 1679.91,962.421C1679.91,962.421 1684.24,941.41 1701.65,961.345C1701.65,961.345 1711.08,882.359 1674.46,867.496C1674.46,867.496 1713.24,945.392 1665.03,920.036C1665.05,920.023 1625.2,899.739 1602,893.578Z" style="fill:rgb(59,73,119);"/>
        <path d="M1362.86,1257.35L1362.86,1251.91C1368.31,1251.91 1373.73,1253.36 1378.8,1256.26C1384.25,1259.16 1388.23,1263.15 1391.14,1268.57C1394.38,1273.67 1395.85,1279.09 1395.85,1284.53C1395.85,1290.32 1394.38,1295.74 1391.49,1301.19C1388.52,1306.2 1384.27,1310.33 1379.18,1313.15C1373.73,1316.04 1368.31,1317.48 1362.86,1317.48L1362.86,1312.06C1367.57,1312.06 1371.93,1310.97 1376.26,1308.44C1380.62,1306.26 1384.24,1302.64 1386.78,1298.29C1388.96,1293.95 1390.4,1289.6 1390.4,1284.53C1390.4,1279.82 1388.96,1275.46 1386.42,1271.1C1384.24,1266.77 1380.62,1263.5 1376.26,1260.97C1371.93,1258.81 1367.22,1257.35 1362.86,1257.35ZM1362.86,1289.61C1363.95,1291.05 1365.78,1293.59 1367.93,1297.21L1371.2,1303.01L1378.09,1303.01L1373.73,1296.12C1371.55,1292.5 1370.11,1290.35 1368.66,1288.87C1367.57,1288.16 1366.86,1287.43 1365.39,1287.07C1368.66,1286.69 1370.84,1285.63 1373.02,1283.8C1374.74,1281.93 1375.64,1279.45 1375.55,1276.91C1375.62,1275.22 1375.1,1273.56 1374.08,1272.2C1373.05,1270.51 1371.35,1269.33 1369.4,1268.96C1367.93,1268.22 1365.78,1267.87 1362.86,1267.87L1362.86,1272.58C1364.3,1272.58 1365.39,1272.93 1366.13,1273.29C1367.08,1273.57 1367.94,1274.06 1368.66,1274.73C1369.4,1275.47 1369.4,1276.56 1369.4,1277.65C1369.4,1279.09 1369.02,1280.54 1367.57,1281.27C1366.86,1282.36 1365.04,1282.71 1362.86,1282.71L1362.86,1289.61ZM1362.86,1257.35C1358.15,1257.35 1353.43,1258.79 1349.1,1260.97C1344.87,1263.38 1341.36,1266.88 1338.95,1271.1C1336.54,1275.16 1335.29,1279.81 1335.33,1284.53C1335.33,1289.6 1336.42,1293.95 1338.95,1298.29C1341.13,1302.64 1344.74,1306.26 1349.1,1308.44C1353.43,1310.97 1357.79,1312.06 1362.86,1312.06L1362.86,1317.48C1357.03,1317.46 1351.3,1315.97 1346.2,1313.15C1341.21,1310.31 1337.08,1306.18 1334.24,1301.19C1331.41,1296.09 1329.91,1290.36 1329.88,1284.53C1329.88,1279.08 1331.35,1273.66 1334.24,1268.57C1337.16,1263.15 1341.13,1259.14 1346.55,1256.26C1351.5,1253.39 1357.13,1251.89 1362.86,1251.91L1362.86,1257.35ZM1362.86,1267.87L1348.38,1267.87L1348.38,1303.01L1354.17,1303.01L1354.17,1287.78L1357.44,1287.78C1359.24,1287.78 1361.06,1288.16 1361.77,1288.87C1362.12,1289.25 1362.51,1289.61 1362.86,1289.61L1362.86,1282.71C1362.12,1283.06 1361.42,1283.06 1361.06,1283.06L1354.17,1283.06L1354.17,1272.57L1362.86,1272.57L1362.86,1267.87ZM1237.86,1268.59L1237.86,1220.04L1247.29,1220.04C1248.02,1189.24 1249.83,1151.18 1252.36,1105.54C1246.93,1125.83 1241.86,1143.95 1237.86,1159.89L1237.86,1044.66L1309.23,1044.66L1311.41,1317.13L1239.3,1317.13L1242.56,1268.57L1237.86,1268.57L1237.86,1268.59ZM1237.86,1044.66L1237.86,1159.89C1232.42,1179.81 1227.46,1199.87 1223,1220.04L1237.86,1220.04L1237.86,1268.59L1217.21,1268.59L1205.98,1317.14L1132.43,1317.14L1206.71,1044.68L1237.86,1044.68L1237.86,1044.66ZM1053.79,1268.59L1053.79,1220.04L1063.22,1220.04C1063.95,1189.24 1065.75,1151.18 1068.66,1105.54C1062.86,1125.83 1058.14,1143.95 1053.79,1159.89L1053.79,1044.66L1125.53,1044.66L1127.71,1317.13L1055.23,1317.13L1058.5,1268.57L1053.79,1268.57L1053.79,1268.59ZM1053.79,1044.66L1053.79,1159.89C1048.35,1179.81 1043.39,1199.87 1038.93,1220.04L1053.79,1220.04L1053.79,1268.59L1033.13,1268.59L1021.9,1317.14L957.765,1317.14L957.765,1282.36L1022.63,1044.66L1053.79,1044.66ZM957.778,1163.51L960.683,1163.51L964.302,1137.79C967.921,1112.07 968.297,1093.21 965.755,1081.26C964.539,1075.02 961.799,1069.17 957.778,1064.25L957.778,1163.51ZM957.778,1064.23L957.778,1163.51L889.661,1163.51L896.185,1116.04C898.351,1102.26 898.714,1093.57 897.637,1090.32C896.548,1086.68 893.656,1084.88 888.208,1084.88C882.411,1084.88 878.429,1087.06 876.25,1091.41C874.084,1095.4 872.269,1104.45 870.09,1118.21L852.334,1245.03C850.518,1258.44 850.168,1267.13 851.258,1271.12C852.334,1274.73 855.602,1276.91 861.037,1276.91C866.108,1276.91 870.103,1274.73 872.269,1271.12C874.447,1267.13 876.613,1257.35 878.792,1242.49L883.5,1208.43L954.523,1208.43L953.083,1218.95C949.101,1247.2 944.017,1267.13 938.583,1278.74C932.785,1290.35 922.643,1300.83 907.78,1309.52C892.929,1318.58 875.537,1322.94 855.252,1322.94C834.604,1322.94 817.938,1319.32 805.604,1311.7C792.92,1304.1 785.682,1293.97 783.14,1280.54C782.693,1278.89 782.45,1277.19 782.414,1275.47L782.414,1243.94C782.777,1236.69 783.867,1229.08 784.943,1220.75L796.175,1141.04C798.704,1121.11 801.609,1106.62 804.151,1096.84C807.044,1086.68 812.491,1077.27 820.091,1068.22C828.72,1058.82 839.38,1051.5 851.258,1046.84C863.579,1041.41 877.703,1038.87 893.28,1038.87C913.927,1038.87 930.594,1042.86 943.278,1050.82C949.452,1054.82 954.16,1059.16 957.778,1064.23ZM957.778,1282.36L948.349,1317.14L957.778,1317.14L957.778,1282.36ZM782.414,1050.1L783.14,1044.66L782.414,1044.66L782.414,1050.1ZM782.414,1044.66L782.414,1050.1L744.724,1317.13L682.767,1317.13L663.209,1193.57L645.816,1317.13L586.389,1317.13L624.429,1044.66L683.857,1044.66L706.32,1167.5L723.713,1044.66L782.414,1044.66ZM782.414,1243.94C781.325,1256.63 781.325,1267.48 782.414,1275.47L782.414,1243.94Z" style="fill:white;"/>
    </g>
</svg>
